<svg xmlns="http://www.w3.org/2000/svg" viewBox="0 0 32 32"><defs><style>.cls-1{fill:#ffe082;}.cls-2{fill:#ffb74d;}.cls-3{fill:#039be5;}</style></defs><title>about us marketing networking online</title><g id="about_us" data-name="about us"><path class="cls-1" d="M16,14.07c-5.24,0-8.47,5.88-8.47,11.26a14.14,14.14,0,0,0,.89,5,1,1,0,0,0,.94.65H22.64a1.06,1.06,0,0,0,.94-.65,14.14,14.14,0,0,0,.89-5C24.47,19.94,21.22,14.07,16,14.07Z"/><path class="cls-2" d="M16,1a6.6,6.6,0,1,0,6.6,6.6A6.61,6.61,0,0,0,16,1Z"/><circle class="cls-3" cx="23" cy="23" r="8"/><path class="cls-1" d="M23,27a1,1,0,0,1-1-1V23a1,1,0,0,1,2,0v3A1,1,0,0,1,23,27Z"/><circle class="cls-1" cx="23" cy="20" r="1"/></g></svg>