<svg xmlns="http://www.w3.org/2000/svg" viewBox="0 0 48 48"><defs><style>.cls-1{fill:#f9e109;}.cls-2{fill:#192835;}.cls-3{fill:#7bba2d;}.cls-4{fill:#2d72bc;}.cls-5{fill:#fbbc04;}.cls-6{fill:#4891d3;}</style></defs><title>contact</title><g id="contact"><path class="cls-1" d="M43,8v8a1,1,0,0,1-1,1H40a1,1,0,0,0-1,1V41H10a1,1,0,0,1-1-1V8a1,1,0,0,1,1-1H42A1,1,0,0,1,43,8Z"/><path class="cls-2" d="M42,17H40a1,1,0,0,0-1,1V30a1,1,0,0,0,1,1h2a3,3,0,0,0,3-3V20A3,3,0,0,0,42,17ZM41,29V19h1a1,1,0,0,1,1,1v8a1,1,0,0,1-1,1Z"/><path class="cls-3" d="M43,20v8a1,1,0,0,1-1,1H41V19h1A1,1,0,0,1,43,20Z"/><path class="cls-2" d="M44.23,30A3,3,0,0,0,42,29H40a1,1,0,0,0-1,1V42a1,1,0,0,0,1,1h2a3,3,0,0,0,3-3V32A3,3,0,0,0,44.23,30ZM43,40a1,1,0,0,1-1,1H41V31h1a1,1,0,0,1,1,1Z"/><path class="cls-4" d="M43,32v8a1,1,0,0,1-1,1H41V31h1A1,1,0,0,1,43,32Z"/><path class="cls-2" d="M10,13H6a1,1,0,0,1,0-2h4a1,1,0,0,1,0,2Z"/><path class="cls-2" d="M10,29H6a1,1,0,0,1,0-2h4a1,1,0,0,1,0,2Z"/><path class="cls-2" d="M10,21H6a1,1,0,0,1,0-2h4a1,1,0,0,1,0,2Z"/><path class="cls-2" d="M10,37H6a1,1,0,0,1,0-2h4a1,1,0,0,1,0,2Z"/><path class="cls-5" d="M14,39a1,1,0,0,1-1-1V6a1,1,0,0,1,2,0V38A1,1,0,0,1,14,39Z"/><path class="cls-2" d="M33.37,24.63a8.21,8.21,0,0,0-1.47-1.17,7.73,7.73,0,0,0-1.16-.64,1,1,0,0,0-1.07.16,2.34,2.34,0,0,1-.31.24,1.73,1.73,0,0,1-.28.19,4.13,4.13,0,0,1-4.16,0,1.73,1.73,0,0,1-.28-.19,2.34,2.34,0,0,1-.31-.24,1,1,0,0,0-1.07-.16,8.68,8.68,0,0,0-1.16.63A9,9,0,0,0,18,31v4a1,1,0,0,0,1,1H35a1,1,0,0,0,1-1V31A9,9,0,0,0,33.37,24.63ZM34,34H20V31a7,7,0,0,1,3.55-6.09c.15.1.3.2.45.28l.28.16.13.06.35.15a6.29,6.29,0,0,0,4.48,0l.35-.15.13-.06.28-.16c.15-.08.3-.18.45-.28A6.57,6.57,0,0,1,32,26,7,7,0,0,1,34,31Z"/><path class="cls-6" d="M34,31v3H20V31a7,7,0,0,1,3.55-6.09c.15.1.3.2.45.28l.28.16.13.06a2.17,2.17,0,0,0,.35.15,5.92,5.92,0,0,0,4.48,0,2.17,2.17,0,0,0,.35-.15l.13-.06.28-.16c.15-.08.3-.18.45-.28A6.57,6.57,0,0,1,32,26,7,7,0,0,1,34,31Z"/><path class="cls-2" d="M27,12a6,6,0,0,0-6,6v2a5.86,5.86,0,0,0,1.1,3.45,6.09,6.09,0,0,0,1.45,1.46c.15.1.3.2.45.28l.28.16.13.06.35.15a5.92,5.92,0,0,0,4.48,0l.35-.15.13-.06.28-.16c.15-.08.3-.18.45-.28a6.24,6.24,0,0,0,1.45-1.45A5.91,5.91,0,0,0,33,20V18A6,6,0,0,0,27,12Zm2.36,11.22a1.73,1.73,0,0,1-.28.19,4,4,0,0,1-4.16,0,1.73,1.73,0,0,1-.28-.19,2.34,2.34,0,0,1-.31-.24A4,4,0,0,1,23,20V18a4,4,0,0,1,8,0v2a4,4,0,0,1-1.33,3A2.34,2.34,0,0,1,29.36,23.22Z"/><path class="cls-6" d="M31,18v2a4,4,0,0,1-1.33,3,2.34,2.34,0,0,1-.31.24,1.73,1.73,0,0,1-.28.19,4.13,4.13,0,0,1-4.16,0,1.73,1.73,0,0,1-.28-.19,2.34,2.34,0,0,1-.31-.24A4,4,0,0,1,23,20V18a4,4,0,0,1,8,0Z"/><path class="cls-2" d="M42,5H10A3,3,0,0,0,7,8V40a3,3,0,0,0,3,3H40a1,1,0,0,0,1-1V19h1a3,3,0,0,0,3-3V8A3,3,0,0,0,42,5Zm1,11a1,1,0,0,1-1,1H40a1,1,0,0,0-1,1V41H10a1,1,0,0,1-1-1V8a1,1,0,0,1,1-1H42a1,1,0,0,1,1,1Z"/></g></svg>