<?xml version="1.0" encoding="utf-8"?>
<!-- Generator: Adobe Illustrator 22.0.0, SVG Export Plug-In . SVG Version: 6.00 Build 0)  -->
<svg version="1.1" xmlns="http://www.w3.org/2000/svg" xmlns:xlink="http://www.w3.org/1999/xlink" x="0px" y="0px"
	 viewBox="0 0 256 256" style="enable-background:new 0 0 256 256;" xml:space="preserve">
<style type="text/css">
	.st0{display:none;}
	.st1{display:inline;}
	.st2{fill:none;stroke:#6B1D1D;stroke-width:0.5;stroke-miterlimit:10;}
	.st3{fill:#3A312A;}
	.st4{fill:#87796F;}
	.st5{fill:#D5DE58;}
	.st6{fill:#695B51;}
	.st7{fill:#FCE8CB;}
	.st8{fill:#F16C7A;}
	.st9{fill:#8AC6DD;}
	.st10{fill:#DECAAD;}
	.st11{fill:#D6DF58;}
	.st12{fill-rule:evenodd;clip-rule:evenodd;fill:#FCE8CB;}
	.st13{fill:#F5978A;}
	.st14{fill:#D7E057;}
	.st15{fill-rule:evenodd;clip-rule:evenodd;fill:#87796F;}
	.st16{fill:#6CA8BF;}
	.st17{fill:#B9C239;}
	.st18{fill:#D34E5C;}
	.st19{fill:#FAE6CA;}
	.st20{fill:#F8E4C8;}
	.st21{fill:#8AC5DC;}
	.st22{fill:#EF6D7A;}
	.st23{fill:#EB6E7A;}
	.st24{fill:#89C4DB;}
	.st25{fill-rule:evenodd;clip-rule:evenodd;fill:#F16C7A;}
	.st26{fill:#F7E3C7;}
	.st27{fill:#F6E2C6;}
	.st28{fill:#ED6E7A;}
	.st29{fill:#8AC3DA;}
	.st30{fill:#D5DC57;}
	.st31{fill-rule:evenodd;clip-rule:evenodd;fill:#D7E057;}
	.st32{fill-rule:evenodd;clip-rule:evenodd;fill:#F8E4C8;}
	.st33{fill:#D4DB56;}
	.st34{fill:#F59689;}
	.st35{fill:#DDC9AC;}
	.st36{fill:#D24E5C;}
	.st37{fill:#6A5C52;}
	.st38{fill:#6CA6BE;}
	.st39{fill:#B8C136;}
	.st40{fill-rule:evenodd;clip-rule:evenodd;fill:#FAE6CA;}
</style>
<g id="Layer_2" class="st0">
	<g class="st1">
		<g>
			<line class="st2" x1="0" y1="4.829" x2="256" y2="4.829"/>
			<line class="st2" x1="0" y1="16.56" x2="256" y2="16.56"/>
			<line class="st2" x1="0" y1="28.29" x2="256" y2="28.29"/>
			<line class="st2" x1="0" y1="40.021" x2="256" y2="40.021"/>
			<line class="st2" x1="0" y1="51.751" x2="256" y2="51.751"/>
			<line class="st2" x1="0" y1="63.482" x2="256" y2="63.482"/>
			<line class="st2" x1="0" y1="75.213" x2="256" y2="75.213"/>
			<line class="st2" x1="0" y1="86.943" x2="256" y2="86.943"/>
			<line class="st2" x1="0" y1="98.674" x2="256" y2="98.674"/>
			<line class="st2" x1="0" y1="110.404" x2="256" y2="110.404"/>
			<line class="st2" x1="0" y1="122.135" x2="256" y2="122.135"/>
			<line class="st2" x1="0" y1="133.865" x2="256" y2="133.865"/>
			<line class="st2" x1="0" y1="145.596" x2="256" y2="145.596"/>
			<line class="st2" x1="0" y1="157.326" x2="256" y2="157.326"/>
			<line class="st2" x1="0" y1="169.057" x2="256" y2="169.057"/>
			<line class="st2" x1="0" y1="180.788" x2="256" y2="180.788"/>
			<line class="st2" x1="0" y1="192.518" x2="256" y2="192.518"/>
			<line class="st2" x1="0" y1="204.249" x2="256" y2="204.249"/>
			<line class="st2" x1="0" y1="215.979" x2="256" y2="215.979"/>
			<line class="st2" x1="0" y1="227.71" x2="256" y2="227.71"/>
			<line class="st2" x1="0" y1="239.44" x2="256" y2="239.44"/>
			<line class="st2" x1="0" y1="251.171" x2="256" y2="251.171"/>
		</g>
		<g>
			<line class="st2" x1="251.171" y1="0" x2="251.171" y2="256"/>
			<line class="st2" x1="239.44" y1="0" x2="239.44" y2="256"/>
			<line class="st2" x1="227.71" y1="0" x2="227.71" y2="256"/>
			<line class="st2" x1="215.979" y1="0" x2="215.979" y2="256"/>
			<line class="st2" x1="204.249" y1="0" x2="204.249" y2="256"/>
			<line class="st2" x1="192.518" y1="0" x2="192.518" y2="256"/>
			<line class="st2" x1="180.788" y1="0" x2="180.788" y2="256"/>
			<line class="st2" x1="169.057" y1="0" x2="169.057" y2="256"/>
			<line class="st2" x1="157.326" y1="0" x2="157.326" y2="256"/>
			<line class="st2" x1="145.596" y1="0" x2="145.596" y2="256"/>
			<line class="st2" x1="133.865" y1="0" x2="133.865" y2="256"/>
			<line class="st2" x1="122.135" y1="0" x2="122.135" y2="256"/>
			<line class="st2" x1="110.404" y1="0" x2="110.404" y2="256"/>
			<line class="st2" x1="98.674" y1="0" x2="98.674" y2="256"/>
			<line class="st2" x1="86.943" y1="0" x2="86.943" y2="256"/>
			<line class="st2" x1="75.212" y1="0" x2="75.212" y2="256"/>
			<line class="st2" x1="63.482" y1="0" x2="63.482" y2="256"/>
			<line class="st2" x1="51.751" y1="0" x2="51.751" y2="256"/>
			<line class="st2" x1="40.021" y1="0" x2="40.021" y2="256"/>
			<line class="st2" x1="28.29" y1="0" x2="28.29" y2="256"/>
			<line class="st2" x1="16.56" y1="0" x2="16.56" y2="256"/>
			<line class="st2" x1="4.829" y1="0" x2="4.829" y2="256"/>
		</g>
	</g>
</g>
<g id="Layer_1">
	<g>
		<path class="st4" d="M190.75,93.587v47.359c0,6.653-5.389,12.042-12.042,12.042H72.831c-6.653,0-12.042-5.389-12.042-12.042
			V93.587l64.981,33.051L190.75,93.587z"/>
		<path class="st3" d="M178.708,154.488H72.831c-7.468,0-13.543-6.075-13.543-13.543V93.587c0-0.521,0.272-1.006,0.716-1.278
			c0.445-0.273,1-0.296,1.464-0.059l64.302,32.705L190.07,92.25c0.464-0.238,1.018-0.215,1.464,0.059
			c0.444,0.272,0.716,0.757,0.716,1.278v47.358C192.25,148.413,186.175,154.488,178.708,154.488z M62.288,96.032v44.913
			c0,5.814,4.73,10.543,10.543,10.543h105.877c5.812,0,10.542-4.729,10.542-10.543V96.033l-62.801,31.941
			c-0.426,0.217-0.934,0.217-1.359,0L62.288,96.032z"/>
		<polygon class="st4" points="84.578,48.131 28,76.908 125.769,126.636 223.539,76.908 125.769,27.181 96.088,42.277 		"/>
		<path class="st3" d="M125.77,128.136c-0.233,0-0.467-0.055-0.68-0.163L27.32,78.245c-0.504-0.256-0.82-0.772-0.82-1.337
			c0-0.564,0.316-1.081,0.82-1.337l56.577-28.776c0.737-0.377,1.642-0.081,2.017,0.657c0.376,0.738,0.081,1.641-0.657,2.017
			L31.309,76.908l94.461,48.045l94.461-48.045L125.77,28.863L96.768,43.614c-0.738,0.378-1.641,0.081-2.017-0.657
			c-0.376-0.738-0.081-1.641,0.657-2.017l29.682-15.097c0.426-0.217,0.934-0.217,1.359,0l97.77,49.727
			c0.504,0.256,0.82,0.773,0.82,1.337c0,0.564-0.316,1.081-0.82,1.337l-97.77,49.728
			C126.236,128.081,126.003,128.136,125.77,128.136z"/>
		<path class="st5" d="M223.539,76.908v60.569c-2.504-3.219-5.89-5.199-9.634-5.199c-3.72,0-7.106,1.979-9.61,5.199V86.685
			L223.539,76.908z"/>
		<path class="st3" d="M223.539,138.977c-0.454,0-0.895-0.207-1.184-0.579c-2.317-2.98-5.318-4.62-8.45-4.62
			c-3.117,0-6.109,1.641-8.427,4.62c-0.393,0.506-1.067,0.706-1.67,0.498c-0.606-0.208-1.014-0.778-1.014-1.419V86.685
			c0-0.564,0.317-1.082,0.82-1.337l19.244-9.776c0.464-0.238,1.02-0.216,1.464,0.059c0.445,0.272,0.716,0.757,0.716,1.278v60.569
			c0,0.641-0.407,1.211-1.014,1.419C223.866,138.951,223.702,138.977,223.539,138.977z M213.905,130.778
			c2.919,0,5.717,1.051,8.134,3.015v-54.44l-16.244,8.253v46.187C208.208,131.829,210.998,130.778,213.905,130.778z"/>
		<ellipse class="st5" cx="213.912" cy="151.524" rx="14.088" ry="19.243"/>
		<path class="st3" d="M213.912,172.267c-8.596,0-15.589-9.305-15.589-20.742s6.993-20.743,15.589-20.743
			c8.595,0,15.588,9.306,15.588,20.743S222.507,172.267,213.912,172.267z M213.912,133.781c-6.941,0-12.589,7.96-12.589,17.743
			s5.648,17.742,12.589,17.742c6.941,0,12.588-7.959,12.588-17.742S220.854,133.781,213.912,133.781z"/>
		<path class="st6" d="M189.25,96.038v44.91c0,5.81-4.73,10.54-10.54,10.54h-15c5.81,0,10.54-4.73,10.54-10.54v-37.28L189.25,96.038
			z"/>
		<path class="st7" d="M89.75,213.596c-0.006,0-0.011-0.001-0.016-0.001v9.02l71.25-2.19c6.11-0.4,11.99-2.45,17.02-5.95
			l59.22-45.53c1.94-1.35,2.57-3.24,2.62-5.06c0.11-4.35-3.41-8.16-7.76-8.35c-1.67-0.08-3.37,0.28-4.93,1.09l-33.56,17.48h-53.14
			c-11.58,0-22.92,3.27-32.72,9.44l-7.48,4.7c-2.86,1.8-6.18,2.76-9.57,2.76h-0.95v7.87c0.006,0,0.011-0.001,0.016-0.001V213.596z"
			/>
		<path class="st3" d="M89.733,224.115c-0.39,0-0.764-0.151-1.044-0.423c-0.292-0.283-0.456-0.671-0.456-1.077v-9.021
			c0-0.856,0.696-1.551,1.594-1.497c0.793,0.04,1.423,0.695,1.423,1.498c0,0.076-0.006,0.15-0.017,0.224v7.249l69.705-2.143
			c5.791-0.381,11.414-2.347,16.209-5.683l59.162-45.487c1.341-0.936,1.988-2.201,2.035-3.912c0.089-3.537-2.808-6.657-6.326-6.81
			c-1.439-0.081-2.879,0.25-4.175,0.922l-33.557,17.479c-0.215,0.111-0.452,0.17-0.693,0.17h-53.14
			c-11.314,0-22.352,3.184-31.922,9.209l-7.48,4.701c-2.953,1.857-6.337,2.884-9.818,2.982v6.153
			c0.011,0.073,0.017,0.147,0.017,0.224c0,0.803-0.631,1.458-1.423,1.498c-0.032,0.002-0.064,0.003-0.094,0.003
			c-0.828,0-1.5-0.672-1.5-1.5v-7.87c0-0.828,0.672-1.5,1.5-1.5h0.95c3.108,0,6.142-0.875,8.771-2.529l7.48-4.701
			c10.048-6.325,21.639-9.669,33.519-9.669h52.772l33.233-17.311c1.767-0.918,3.735-1.357,5.696-1.258
			c5.107,0.223,9.317,4.75,9.188,9.886c-0.073,2.657-1.201,4.818-3.264,6.254l-59.162,45.487c-5.3,3.689-11.447,5.839-17.836,6.258
			l-71.303,2.192C89.764,224.115,89.749,224.115,89.733,224.115z"/>
		<path class="st3" d="M137.619,201.361c-0.661,0-1.267-0.44-1.447-1.109c-0.216-0.8,0.258-1.623,1.058-1.839
			c8.555-2.307,15.487-3.713,22.192-5.072c6.939-1.407,13.495-2.737,20.724-4.895c3.201-0.955,6.829-2.037,9.44-4.27
			c2.234-1.911,3.891-5.326,2.73-8.155c-0.314-0.767,0.052-1.643,0.818-1.957c0.77-0.314,1.644,0.052,1.957,0.818
			c1.78,4.341-0.596,9.042-3.557,11.573c-3.094,2.645-7.046,3.825-10.532,4.865c-7.357,2.195-13.977,3.538-20.984,4.959
			c-6.659,1.351-13.546,2.747-22.008,5.029C137.88,201.345,137.748,201.361,137.619,201.361z"/>
		<polygon class="st8" points="30.653,175.086 16.154,175.086 16.154,239.484 63.404,239.484 63.404,175.086 44.846,175.086 		"/>
		<path class="st3" d="M63.403,240.983h-47.25c-0.828,0-1.5-0.672-1.5-1.5v-64.397c0-0.828,0.672-1.5,1.5-1.5h14.5
			c0.828,0,1.5,0.672,1.5,1.5c0,0.828-0.672,1.5-1.5,1.5h-13v61.397h44.25v-61.397H44.846c-0.828,0-1.5-0.672-1.5-1.5
			c0-0.828,0.672-1.5,1.5-1.5h18.558c0.828,0,1.5,0.672,1.5,1.5v64.397C64.903,240.311,64.231,240.983,63.403,240.983z"/>
		<path class="st9" d="M89.737,198.875v-15.797c0-4.413-3.578-7.991-7.991-7.991H63.404v64.397h18.342
			c4.413,0,7.991-3.578,7.991-7.991v-17.897V198.875z"/>
		<path class="st3" d="M81.746,240.983H63.403c-0.828,0-1.5-0.672-1.5-1.5v-64.397c0-0.828,0.672-1.5,1.5-1.5h18.343
			c5.233,0,9.491,4.258,9.491,9.491v15.798c0,0.828-0.672,1.5-1.5,1.5s-1.5-0.672-1.5-1.5v-15.798c0-3.579-2.912-6.491-6.491-6.491
			H64.903v61.397h16.843c3.579,0,6.491-2.912,6.491-6.491v-17.896c0-0.828,0.672-1.5,1.5-1.5s1.5,0.672,1.5,1.5v17.896
			C91.237,236.726,86.979,240.983,81.746,240.983z"/>
		<path class="st4" d="M82.598,226.128c0,3.329-2.699,6.028-6.028,6.028c-3.329,0-6.028-2.699-6.028-6.028
			c0-3.329,2.699-6.028,6.028-6.028C79.899,220.1,82.598,222.799,82.598,226.128z"/>
		<path class="st3" d="M76.57,233.655c-4.15,0-7.527-3.377-7.527-7.527s3.377-7.527,7.527-7.527s7.527,3.377,7.527,7.527
			S80.721,233.655,76.57,233.655z M76.57,221.601c-2.496,0-4.527,2.031-4.527,4.527s2.031,4.527,4.527,4.527
			s4.527-2.031,4.527-4.527S79.066,221.601,76.57,221.601z"/>
		<path class="st10" d="M232.024,157.035c-1.45-0.07-2.9,0.25-4.18,0.92l-4.22,2.2c0.69,1.08,1.08,2.35,1.05,3.69
			c-0.04,1.71-0.69,2.98-2.03,3.91l-59.17,45.49c-7.07,4.959-16.561,5.97-16.545,6.11l14.015-0.43c5.78-0.37,11.4-2.34,16.2-5.68
			l59.17-45.49c1.34-0.93,1.98-2.2,2.03-3.91C238.434,160.305,235.544,157.185,232.024,157.035z"/>
		<path class="st11" d="M47.911,26.194c0,0,3.408,12.659,13.222,13.246c0,0-13.1,4.525-13.321,14.202
			c0,0-2.578-13.572-12.925-14.059C34.887,39.583,46.937,37.757,47.911,26.194z"/>
		<path class="st3" d="M47.81,55.142c-0.713,0-1.335-0.506-1.473-1.218c-0.023-0.124-2.494-12.417-11.521-12.843
			c-0.771-0.036-1.388-0.65-1.428-1.421c-0.04-0.77,0.511-1.444,1.273-1.561c0.441-0.068,10.895-1.816,11.754-12.032
			c0.061-0.726,0.635-1.301,1.359-1.367c0.736-0.053,1.394,0.399,1.584,1.102c0.031,0.116,3.259,11.626,11.863,12.142
			c0.714,0.043,1.298,0.584,1.396,1.292c0.098,0.708-0.318,1.388-0.994,1.622c-0.121,0.042-12.118,4.311-12.313,12.819
			c-0.018,0.767-0.611,1.396-1.375,1.46C47.894,55.14,47.852,55.142,47.81,55.142z M40.07,39.412
			c3.878,1.969,6.229,5.746,7.586,8.877c2.026-4.021,5.942-6.787,8.949-8.428c-4.134-1.842-6.783-5.651-8.334-8.723
			C46.478,35.499,43.001,38.008,40.07,39.412z"/>
		<path class="st11" d="M26.212,43.174c0,0,2.411,8.954,9.352,9.369c0,0-9.266,3.201-9.422,10.045c0,0-1.824-9.6-9.142-9.944
			C17,52.645,25.524,51.353,26.212,43.174z"/>
		<path class="st3" d="M26.142,64.089c-0.714,0-1.337-0.507-1.473-1.22c-0.016-0.082-1.704-8.442-7.739-8.726
			c-0.771-0.036-1.388-0.65-1.428-1.421c-0.04-0.77,0.511-1.444,1.273-1.561c0.296-0.047,7.363-1.242,7.942-8.113
			c0.062-0.726,0.636-1.303,1.361-1.368c0.717-0.056,1.392,0.399,1.582,1.102l0,0c0.021,0.079,2.227,7.92,7.993,8.266
			c0.714,0.043,1.299,0.584,1.396,1.293c0.097,0.709-0.32,1.389-0.997,1.622c-0.08,0.028-8.281,2.952-8.411,8.661
			c-0.018,0.768-0.611,1.397-1.376,1.461C26.225,64.087,26.183,64.089,26.142,64.089z M21.622,52.562
			c2.107,1.332,3.523,3.395,4.447,5.279c1.376-2.232,3.516-3.871,5.365-4.972c-2.288-1.269-3.885-3.35-4.941-5.225
			C25.319,49.932,23.477,51.521,21.622,52.562z"/>
		<path class="st11" d="M26.212,16.516c0,0,2.411,8.954,9.352,9.37c0,0-9.266,3.201-9.422,10.045c0,0-1.824-9.6-9.142-9.944
			C17,25.987,25.524,24.696,26.212,16.516z"/>
		<path class="st3" d="M26.142,37.432c-0.714,0-1.337-0.507-1.473-1.22c-0.016-0.082-1.704-8.442-7.739-8.726
			c-0.771-0.036-1.388-0.65-1.428-1.421c-0.04-0.77,0.511-1.444,1.273-1.561c0.296-0.047,7.363-1.243,7.942-8.113
			c0.062-0.726,0.636-1.303,1.361-1.368c0.717-0.055,1.392,0.399,1.582,1.102l0,0c0.021,0.079,2.227,7.92,7.993,8.265
			c0.714,0.042,1.299,0.584,1.396,1.293c0.097,0.709-0.32,1.388-0.996,1.622c-0.081,0.028-8.282,2.953-8.412,8.662
			c-0.018,0.768-0.611,1.397-1.376,1.461C26.225,37.43,26.183,37.432,26.142,37.432z M21.622,25.903
			c2.107,1.333,3.523,3.395,4.447,5.28c1.376-2.232,3.516-3.872,5.365-4.973c-2.287-1.268-3.885-3.35-4.941-5.224
			C25.319,23.273,23.477,24.862,21.622,25.903z"/>
	</g>
</g>
</svg>
