<svg xmlns="http://www.w3.org/2000/svg" viewBox="0 0 48 48"><defs><style>.cls-1{fill:#dad7e5;}.cls-2{fill:#edebf2;}.cls-3{fill:#db5669;}.cls-4{fill:#f26674;}.cls-5{fill:#919191;}.cls-6{fill:#b5e08c;}.cls-7{fill:#374f68;}.cls-8{fill:#425b72;}</style></defs><title>Project</title><g id="Project"><rect class="cls-1" x="7" y="6" width="34" height="41"/><path class="cls-2" d="M41,6V45h0A31,31,0,0,1,10,14V6Z"/><rect class="cls-3" x="12" y="36" width="6" height="6"/><rect class="cls-3" x="12" y="25" width="6" height="6"/><path class="cls-4" d="M18,25v4h0a4,4,0,0,1-4-4h4Z"/><path class="cls-4" d="M18,36v4h0a4,4,0,0,1-4-4h4Z"/><path class="cls-5" d="M36,20H23a1,1,0,0,1,0-2H36a1,1,0,0,1,0,2Z"/><path class="cls-5" d="M36,16H23a1,1,0,0,1,0-2H36a1,1,0,0,1,0,2Z"/><path class="cls-5" d="M36,31H23a1,1,0,0,1,0-2H36a1,1,0,0,1,0,2Z"/><path class="cls-5" d="M36,27H23a1,1,0,0,1,0-2H36a1,1,0,0,1,0,2Z"/><path class="cls-5" d="M36,42H23a1,1,0,0,1,0-2H36a1,1,0,0,1,0,2Z"/><path class="cls-5" d="M36,38H23a1,1,0,0,1,0-2H36a1,1,0,0,1,0,2Z"/><path class="cls-6" d="M14,20a1,1,0,0,1-.71-.29l-2-2a1,1,0,0,1,1.42-1.42L14,17.59l3.29-3.3a1,1,0,0,1,1.42,1.42l-4,4A1,1,0,0,1,14,20Z"/><path class="cls-7" d="M27,4a3,3,0,0,0-6,0H17V8H31V4Z"/><path class="cls-8" d="M31,4V6H21a2,2,0,0,1-2-2h2a3,3,0,0,1,6,0Z"/></g></svg>