<?xml version="1.0" encoding="utf-8"?>
<!-- Generator: Adobe Illustrator 22.0.0, SVG Export Plug-In . SVG Version: 6.00 Build 0)  -->
<svg version="1.1" xmlns="http://www.w3.org/2000/svg" xmlns:xlink="http://www.w3.org/1999/xlink" x="0px" y="0px"
	 viewBox="0 0 256 256" style="enable-background:new 0 0 256 256;" xml:space="preserve">
<style type="text/css">
	.st0{display:none;}
	.st1{display:inline;}
	.st2{fill:none;stroke:#6B1D1D;stroke-width:0.5;stroke-miterlimit:10;}
	.st3{fill:#3A312A;}
	.st4{fill:#87796F;}
	.st5{fill:#D5DE58;}
	.st6{fill:#695B51;}
	.st7{fill:#FCE8CB;}
	.st8{fill:#F16C7A;}
	.st9{fill:#8AC6DD;}
	.st10{fill:#DECAAD;}
	.st11{fill:#D6DF58;}
	.st12{fill-rule:evenodd;clip-rule:evenodd;fill:#FCE8CB;}
	.st13{fill:#F5978A;}
	.st14{fill:#D7E057;}
	.st15{fill-rule:evenodd;clip-rule:evenodd;fill:#87796F;}
	.st16{fill:#6CA8BF;}
	.st17{fill:#B9C239;}
	.st18{fill:#D34E5C;}
	.st19{fill:#FAE6CA;}
	.st20{fill:#F8E4C8;}
	.st21{fill:#8AC5DC;}
	.st22{fill:#EF6D7A;}
	.st23{fill:#EB6E7A;}
	.st24{fill:#89C4DB;}
	.st25{fill-rule:evenodd;clip-rule:evenodd;fill:#F16C7A;}
	.st26{fill:#F7E3C7;}
	.st27{fill:#F6E2C6;}
	.st28{fill:#ED6E7A;}
	.st29{fill:#8AC3DA;}
	.st30{fill:#D5DC57;}
	.st31{fill-rule:evenodd;clip-rule:evenodd;fill:#D7E057;}
	.st32{fill-rule:evenodd;clip-rule:evenodd;fill:#F8E4C8;}
	.st33{fill:#D4DB56;}
	.st34{fill:#F59689;}
	.st35{fill:#DDC9AC;}
	.st36{fill:#D24E5C;}
	.st37{fill:#6A5C52;}
	.st38{fill:#6CA6BE;}
	.st39{fill:#B8C136;}
	.st40{fill-rule:evenodd;clip-rule:evenodd;fill:#FAE6CA;}
</style>
<g id="Layer_2" class="st0">
	<g class="st1">
		<g>
			<line class="st2" x1="0" y1="4.829" x2="256" y2="4.829"/>
			<line class="st2" x1="0" y1="16.56" x2="256" y2="16.56"/>
			<line class="st2" x1="0" y1="28.29" x2="256" y2="28.29"/>
			<line class="st2" x1="0" y1="40.021" x2="256" y2="40.021"/>
			<line class="st2" x1="0" y1="51.751" x2="256" y2="51.751"/>
			<line class="st2" x1="0" y1="63.482" x2="256" y2="63.482"/>
			<line class="st2" x1="0" y1="75.213" x2="256" y2="75.213"/>
			<line class="st2" x1="0" y1="86.943" x2="256" y2="86.943"/>
			<line class="st2" x1="0" y1="98.674" x2="256" y2="98.674"/>
			<line class="st2" x1="0" y1="110.404" x2="256" y2="110.404"/>
			<line class="st2" x1="0" y1="122.135" x2="256" y2="122.135"/>
			<line class="st2" x1="0" y1="133.865" x2="256" y2="133.865"/>
			<line class="st2" x1="0" y1="145.596" x2="256" y2="145.596"/>
			<line class="st2" x1="0" y1="157.326" x2="256" y2="157.326"/>
			<line class="st2" x1="0" y1="169.057" x2="256" y2="169.057"/>
			<line class="st2" x1="0" y1="180.788" x2="256" y2="180.788"/>
			<line class="st2" x1="0" y1="192.518" x2="256" y2="192.518"/>
			<line class="st2" x1="0" y1="204.249" x2="256" y2="204.249"/>
			<line class="st2" x1="0" y1="215.979" x2="256" y2="215.979"/>
			<line class="st2" x1="0" y1="227.71" x2="256" y2="227.71"/>
			<line class="st2" x1="0" y1="239.44" x2="256" y2="239.44"/>
			<line class="st2" x1="0" y1="251.171" x2="256" y2="251.171"/>
		</g>
		<g>
			<line class="st2" x1="251.171" y1="0" x2="251.171" y2="256"/>
			<line class="st2" x1="239.44" y1="0" x2="239.44" y2="256"/>
			<line class="st2" x1="227.71" y1="0" x2="227.71" y2="256"/>
			<line class="st2" x1="215.979" y1="0" x2="215.979" y2="256"/>
			<line class="st2" x1="204.249" y1="0" x2="204.249" y2="256"/>
			<line class="st2" x1="192.518" y1="0" x2="192.518" y2="256"/>
			<line class="st2" x1="180.787" y1="0" x2="180.787" y2="256"/>
			<line class="st2" x1="169.057" y1="0" x2="169.057" y2="256"/>
			<line class="st2" x1="157.326" y1="0" x2="157.326" y2="256"/>
			<line class="st2" x1="145.596" y1="0" x2="145.596" y2="256"/>
			<line class="st2" x1="133.865" y1="0" x2="133.865" y2="256"/>
			<line class="st2" x1="122.135" y1="0" x2="122.135" y2="256"/>
			<line class="st2" x1="110.404" y1="0" x2="110.404" y2="256"/>
			<line class="st2" x1="98.674" y1="0" x2="98.674" y2="256"/>
			<line class="st2" x1="86.943" y1="0" x2="86.943" y2="256"/>
			<line class="st2" x1="75.212" y1="0" x2="75.212" y2="256"/>
			<line class="st2" x1="63.482" y1="0" x2="63.482" y2="256"/>
			<line class="st2" x1="51.751" y1="0" x2="51.751" y2="256"/>
			<line class="st2" x1="40.021" y1="0" x2="40.021" y2="256"/>
			<line class="st2" x1="28.29" y1="0" x2="28.29" y2="256"/>
			<line class="st2" x1="16.56" y1="0" x2="16.56" y2="256"/>
			<line class="st2" x1="4.829" y1="0" x2="4.829" y2="256"/>
		</g>
	</g>
</g>
<g id="Layer_1">
	<g>
		<path class="st8" d="M206.153,43.585h-29.557v9.651h24.731v6.458c0,14.018-10.938,25.535-24.731,26.452v3.08
			c0,2.244-0.153,4.456-0.466,6.611c19.334-0.7,34.849-16.64,34.849-36.144V48.411C210.979,45.748,208.815,43.585,206.153,43.585z"
			/>
		<path class="st3" d="M176.13,97.338c-0.425,0-0.832-0.181-1.117-0.498c-0.297-0.331-0.432-0.777-0.368-1.218
			c0.299-2.059,0.451-4.21,0.451-6.395v-3.081c0-0.79,0.612-1.444,1.4-1.497c13.083-0.87,23.331-11.831,23.331-24.956v-4.958
			h-23.231c-0.829,0-1.5-0.671-1.5-1.5v-9.651c0-0.829,0.671-1.5,1.5-1.5h29.557c3.488,0,6.326,2.838,6.326,6.326v11.284
			c0,20.372-15.942,36.906-36.295,37.643C176.166,97.337,176.148,97.338,176.13,97.338z M178.097,87.515v1.712
			c0,1.693-0.086,3.37-0.256,5.004c17.88-1.536,31.638-16.381,31.638-34.537V48.411c0-1.834-1.492-3.326-3.326-3.326h-28.057v6.651
			h23.231c0.829,0,1.5,0.671,1.5,1.5v6.458C202.828,73.921,192.074,85.879,178.097,87.515z"/>
		<path class="st8" d="M82.095,89.227v-3.08C68.302,85.23,57.364,73.713,57.364,59.694v-6.458h24.731v-9.651H52.539
			c-2.662,0-4.826,2.163-4.826,4.826v11.284c0,19.503,15.514,35.444,34.849,36.144C82.248,93.683,82.095,91.471,82.095,89.227z"/>
		<path class="st3" d="M82.562,97.338c-0.018,0-0.036,0-0.054-0.001c-20.352-0.736-36.295-17.271-36.295-37.643V48.411
			c0-3.488,2.838-6.326,6.326-6.326h29.557c0.829,0,1.5,0.671,1.5,1.5v9.651c0,0.829-0.671,1.5-1.5,1.5H58.864v4.958
			c0,13.125,10.248,24.086,23.331,24.956c0.788,0.052,1.4,0.706,1.4,1.497v3.081c0,2.188,0.152,4.34,0.451,6.395
			c0.064,0.44-0.071,0.887-0.368,1.218C83.394,97.157,82.987,97.338,82.562,97.338z M52.539,45.085
			c-1.834,0-3.326,1.492-3.326,3.326v11.284c0,18.156,13.758,33.001,31.638,34.537c-0.169-1.633-0.255-3.309-0.255-5.004v-1.712
			c-13.977-1.636-24.731-13.594-24.731-27.82v-6.458c0-0.829,0.671-1.5,1.5-1.5h23.231v-6.651H52.539z"/>
		<path class="st14" d="M140.338,136.452v20.152h-21.984v-20.152c0.388,0.015,0.784,0.022,1.172,0.022h19.639
			C139.554,136.474,139.949,136.467,140.338,136.452z"/>
		<path class="st3" d="M140.338,158.105h-21.984c-0.829,0-1.5-0.671-1.5-1.5v-20.152c0-0.408,0.166-0.798,0.459-1.081
			c0.294-0.283,0.687-0.424,1.097-0.419c0.369,0.014,0.746,0.021,1.116,0.021h19.639c0.37,0,0.746-0.006,1.116-0.021
			c0.417-0.016,0.803,0.136,1.097,0.419c0.294,0.283,0.46,0.673,0.46,1.081v20.152C141.838,157.433,141.166,158.105,140.338,158.105
			z M119.854,155.105h18.984v-17.13h-18.984V155.105z"/>
		<path class="st8" d="M162.439,168.456H96.253v-0.362c0-6.347,5.145-11.492,11.492-11.492h43.202
			c6.347,0,11.492,5.145,11.492,11.492V168.456z"/>
		<path class="st3" d="M162.439,169.956H96.253c-0.829,0-1.5-0.671-1.5-1.5v-0.362c0-7.164,5.828-12.992,12.992-12.992h43.202
			c7.164,0,12.992,5.828,12.992,12.992v0.362C163.939,169.285,163.268,169.956,162.439,169.956z M97.817,166.956h63.057
			c-0.566-4.976-4.803-8.855-9.928-8.855h-43.202C102.62,158.102,98.384,161.98,97.817,166.956z"/>
		<path class="st8" d="M163.295,168.456H95.397c-6.347,0-11.492,5.145-11.492,11.492v0.362h90.882v-0.362
			C174.787,173.601,169.642,168.456,163.295,168.456z"/>
		<path class="st3" d="M174.787,181.81H83.905c-0.829,0-1.5-0.671-1.5-1.5v-0.362c0-7.164,5.828-12.992,12.992-12.992h67.898
			c7.164,0,12.992,5.828,12.992,12.992v0.362C176.287,181.139,175.616,181.81,174.787,181.81z M85.469,178.81h87.753
			c-0.566-4.976-4.803-8.854-9.928-8.854H95.397C90.272,169.956,86.036,173.835,85.469,178.81z"/>
		<path class="st14" d="M176.597,34.242v64.801c0,20.672-16.759,37.431-37.431,37.431h-19.639
			c-20.672,0-37.431-16.759-37.431-37.431V34.242H176.597z"/>
		<path class="st3" d="M139.165,137.974h-19.639c-21.467,0-38.931-17.464-38.931-38.931V34.242c0-0.829,0.671-1.5,1.5-1.5h94.502
			c0.829,0,1.5,0.671,1.5,1.5v64.801C178.097,120.51,160.632,137.974,139.165,137.974z M83.595,35.742v63.301
			c0,19.812,16.119,35.931,35.931,35.931h19.639c19.812,0,35.931-16.119,35.931-35.931V35.742H83.595z"/>
		<path class="st14" d="M101.952,16.655H83.298c-3.758,0-6.805,3.047-6.805,6.805v3.977c0,3.758,3.047,6.805,6.805,6.805h92.095
			c3.758,0,6.805-3.047,6.805-6.805V23.46c0-3.758-3.047-6.805-6.805-6.805h-60.654H101.952z"/>
		<path class="st3" d="M175.394,35.742H83.298c-4.579,0-8.305-3.726-8.305-8.305V23.46c0-4.58,3.726-8.305,8.305-8.305h18.654
			c0.829,0,1.5,0.671,1.5,1.5c0,0.829-0.671,1.5-1.5,1.5H83.298c-2.925,0-5.305,2.38-5.305,5.305v3.977
			c0,2.925,2.38,5.305,5.305,5.305h92.095c2.925,0,5.305-2.38,5.305-5.305V23.46c0-2.925-2.38-5.305-5.305-5.305h-60.654
			c-0.829,0-1.5-0.671-1.5-1.5c0-0.829,0.671-1.5,1.5-1.5h60.654c4.579,0,8.305,3.726,8.305,8.305v3.977
			C183.699,32.017,179.973,35.742,175.394,35.742z"/>
		
			<ellipse transform="matrix(0.7071 -0.7071 0.7071 0.7071 -21.4562 116.3447)" class="st4" cx="129.712" cy="84.072" rx="30.045" ry="30.045"/>
		<path class="st3" d="M129.712,115.617c-17.394,0-31.545-14.151-31.545-31.544c0-17.394,14.151-31.545,31.545-31.545
			c17.394,0,31.544,14.151,31.544,31.545C161.257,101.466,147.106,115.617,129.712,115.617z M129.712,55.528
			c-15.74,0-28.545,12.805-28.545,28.545c0,15.739,12.805,28.544,28.545,28.544c15.739,0,28.544-12.805,28.544-28.544
			C158.257,68.333,145.452,55.528,129.712,55.528z"/>
		<path class="st19" d="M131.458,65.004l5.009,10.15c0.283,0.574,0.831,0.973,1.465,1.065l11.201,1.628
			c1.596,0.232,2.234,2.194,1.079,3.32l-8.105,7.901c-0.459,0.447-0.668,1.091-0.56,1.723l1.913,11.156
			c0.273,1.59-1.396,2.802-2.824,2.052l-10.019-5.267c-0.567-0.298-1.244-0.298-1.811,0l-10.019,5.267
			c-1.428,0.751-3.097-0.462-2.824-2.052l1.913-11.156c0.108-0.631-0.101-1.276-0.56-1.723l-8.105-7.901
			c-1.155-1.126-0.518-3.088,1.079-3.32l11.201-1.628c0.634-0.092,1.182-0.49,1.465-1.065l5.009-10.15
			C128.681,63.558,130.744,63.558,131.458,65.004z"/>
		<path class="st3" d="M141.545,105.724c-0.547,0-1.098-0.132-1.606-0.399l-10.019-5.267c-0.129-0.068-0.286-0.068-0.415,0
			l-10.018,5.267c-1.17,0.616-2.561,0.514-3.629-0.262c-1.069-0.777-1.595-2.068-1.371-3.371l1.914-11.156
			c0.025-0.145-0.023-0.292-0.128-0.396l-8.105-7.9c-0.946-0.923-1.28-2.276-0.872-3.533c0.409-1.257,1.475-2.155,2.782-2.345
			l11.201-1.628c0.146-0.021,0.271-0.112,0.336-0.244l5.009-10.15c0.585-1.185,1.77-1.921,3.091-1.921c0,0,0,0,0.001,0
			c1.321,0,2.505,0.736,3.09,1.921l5.009,10.149c0.065,0.132,0.19,0.223,0.335,0.244l11.202,1.628
			c1.308,0.19,2.374,1.089,2.782,2.345c0.408,1.257,0.074,2.611-0.872,3.533l-8.105,7.9c-0.105,0.103-0.153,0.251-0.128,0.396
			l1.914,11.155c0.224,1.302-0.302,2.593-1.371,3.37C142.964,105.501,142.257,105.724,141.545,105.724z M129.712,97.007
			c0.55,0,1.101,0.131,1.603,0.395l10.02,5.268c0.203,0.106,0.367,0.04,0.47-0.034c0.103-0.074,0.216-0.211,0.177-0.436
			l-1.913-11.156c-0.191-1.119,0.18-2.259,0.992-3.05l8.105-7.9c0.164-0.16,0.152-0.337,0.113-0.457
			c-0.039-0.12-0.133-0.271-0.36-0.304l-11.201-1.628c-1.122-0.163-2.092-0.867-2.594-1.884l-5.01-10.15c0-0.001,0-0.001,0-0.001
			c-0.102-0.206-0.273-0.249-0.4-0.249l0,0c-0.126,0-0.299,0.043-0.4,0.249l-5.009,10.15c-0.502,1.018-1.472,1.722-2.596,1.885
			l-11.2,1.628c-0.227,0.033-0.321,0.184-0.36,0.304c-0.04,0.121-0.052,0.298,0.113,0.458l8.105,7.9
			c0.812,0.793,1.183,1.933,0.991,3.051l-1.914,11.155c-0.039,0.226,0.075,0.362,0.178,0.437c0.103,0.074,0.269,0.141,0.47,0.034
			l10.018-5.267C128.611,97.139,129.162,97.007,129.712,97.007z"/>
		<path class="st14" d="M67.257,118.875c0,0,3.408,12.659,13.222,13.246c0,0-13.1,4.525-13.321,14.202
			c0,0-2.578-13.572-12.925-14.059C54.232,132.264,66.283,130.439,67.257,118.875z"/>
		<path class="st3" d="M67.157,147.823c-0.713,0-1.335-0.506-1.472-1.217c-0.024-0.124-2.495-12.418-11.523-12.843
			c-0.77-0.037-1.387-0.651-1.427-1.421c-0.04-0.77,0.511-1.445,1.273-1.561c0.441-0.069,10.894-1.817,11.754-12.032
			c0.061-0.725,0.634-1.301,1.359-1.367c0.718-0.062,1.393,0.398,1.583,1.102c0.032,0.116,3.259,11.626,11.864,12.14
			c0.714,0.043,1.298,0.584,1.396,1.292c0.098,0.708-0.319,1.388-0.994,1.623c-0.121,0.042-12.118,4.311-12.313,12.819
			c-0.018,0.767-0.61,1.396-1.375,1.46C67.241,147.821,67.198,147.823,67.157,147.823z M59.415,132.093
			c3.878,1.969,6.231,5.746,7.587,8.876c2.026-4.021,5.942-6.787,8.949-8.427c-4.135-1.842-6.783-5.651-8.334-8.722
			C65.824,128.18,62.346,130.689,59.415,132.093z"/>
		<path class="st14" d="M45.558,135.855c0,0,2.411,8.954,9.352,9.369c0,0-9.266,3.201-9.422,10.045c0,0-1.824-9.6-9.142-9.944
			C36.346,145.326,44.869,144.035,45.558,135.855z"/>
		<path class="st3" d="M45.487,156.77c-0.714,0-1.337-0.507-1.473-1.22c-0.016-0.082-1.704-8.442-7.739-8.726
			c-0.77-0.037-1.387-0.651-1.427-1.421c-0.04-0.771,0.511-1.445,1.273-1.561c0.296-0.047,7.364-1.243,7.942-8.113
			c0.061-0.726,0.635-1.303,1.36-1.368c0.731-0.063,1.392,0.4,1.582,1.102l0,0c0.021,0.079,2.228,7.919,7.993,8.264
			c0.715,0.043,1.299,0.584,1.397,1.293c0.098,0.709-0.319,1.388-0.996,1.622c-0.081,0.028-8.282,2.953-8.412,8.662
			c-0.018,0.767-0.611,1.398-1.376,1.461C45.57,156.769,45.528,156.77,45.487,156.77z M40.968,145.243
			c2.107,1.332,3.523,3.394,4.447,5.28c1.376-2.233,3.515-3.872,5.364-4.973c-2.287-1.269-3.884-3.35-4.941-5.223
			C44.665,142.613,42.824,144.202,40.968,145.243z"/>
		<path class="st14" d="M45.558,109.198c0,0,2.411,8.954,9.352,9.37c0,0-9.266,3.201-9.422,10.045c0,0-1.824-9.6-9.142-9.944
			C36.346,118.669,44.869,117.377,45.558,109.198z"/>
		<path class="st3" d="M45.487,130.113c-0.714,0-1.337-0.507-1.473-1.22c-0.016-0.082-1.704-8.442-7.739-8.726
			c-0.771-0.037-1.388-0.651-1.428-1.421c-0.04-0.771,0.511-1.445,1.273-1.561c0.296-0.047,7.364-1.243,7.942-8.114
			c0.061-0.726,0.635-1.303,1.36-1.368c0.731-0.064,1.392,0.4,1.582,1.102l0,0c0.021,0.079,2.228,7.92,7.994,8.265
			c0.714,0.043,1.299,0.584,1.396,1.293c0.098,0.709-0.32,1.388-0.996,1.622c-0.081,0.028-8.282,2.952-8.412,8.662
			c-0.018,0.767-0.611,1.397-1.376,1.461C45.57,130.111,45.528,130.113,45.487,130.113z M40.968,118.585
			c2.107,1.333,3.523,3.395,4.447,5.28c1.376-2.232,3.515-3.871,5.365-4.972c-2.287-1.27-3.884-3.35-4.941-5.224
			C44.665,115.955,42.824,117.544,40.968,118.585z"/>
		<path class="st9" d="M87.074,239.345h125.612c3.848,0,6.968-3.119,6.968-6.968v-16.034c0-3.848-3.12-6.968-6.968-6.968H45.314
			c-3.848,0-6.968,3.119-6.968,6.968v16.034c0,3.848,3.12,6.968,6.968,6.968h28.971H87.074z"/>
		<path class="st3" d="M212.686,240.845H87.074c-0.829,0-1.5-0.671-1.5-1.5s0.671-1.5,1.5-1.5h125.612
			c3.015,0,5.467-2.453,5.467-5.467v-16.034c0-3.015-2.453-5.468-5.467-5.468H45.314c-3.015,0-5.468,2.453-5.468,5.468v16.034
			c0,3.015,2.453,5.467,5.468,5.467h28.971c0.829,0,1.5,0.671,1.5,1.5s-0.671,1.5-1.5,1.5H45.314c-4.669,0-8.468-3.798-8.468-8.467
			v-16.034c0-4.669,3.799-8.468,8.468-8.468h167.372c4.669,0,8.467,3.799,8.467,8.468v16.034
			C221.154,237.046,217.355,240.845,212.686,240.845z"/>
		<rect x="150.05" y="209.376" class="st8" width="37.624" height="29.969"/>
		<path class="st3" d="M187.674,240.845H150.05c-0.829,0-1.5-0.671-1.5-1.5v-29.97c0-0.829,0.671-1.5,1.5-1.5h37.623
			c0.829,0,1.5,0.671,1.5,1.5v29.97C189.174,240.174,188.502,240.845,187.674,240.845z M151.55,237.845h34.623v-26.97H151.55
			V237.845z"/>
		<path class="st7" d="M199.676,187.623v14.784c0,3.848-3.12,6.968-6.968,6.968H60.314c-3.848,0-6.968-3.12-6.968-6.968v-14.784
			c0-3.848,3.119-6.968,6.968-6.968h132.394C196.556,180.655,199.676,183.775,199.676,187.623z"/>
		<path class="st3" d="M192.708,210.875H60.313c-4.669,0-8.467-3.799-8.467-8.468v-14.785c0-4.669,3.798-8.468,8.467-8.468h132.395
			c4.669,0,8.468,3.799,8.468,8.468v14.785C201.176,207.076,197.377,210.875,192.708,210.875z M60.313,182.155
			c-3.015,0-5.467,2.453-5.467,5.468v14.785c0,3.015,2.453,5.468,5.467,5.468h132.395c3.015,0,5.468-2.453,5.468-5.468v-14.785
			c0-3.015-2.453-5.468-5.468-5.468H60.313z"/>
		<rect x="142.347" y="180.655" class="st14" width="30.987" height="28.721"/>
		<path class="st3" d="M173.334,210.876h-30.987c-0.829,0-1.5-0.671-1.5-1.5v-28.721c0-0.829,0.671-1.5,1.5-1.5h30.987
			c0.829,0,1.5,0.671,1.5,1.5v28.721C174.834,210.204,174.163,210.876,173.334,210.876z M143.847,207.876h27.987v-25.721h-27.987
			V207.876z"/>
		<path class="st17" d="M160.096,35.745v39.85c0.76,2.7,1.16,5.54,1.16,8.48c0,2.94-0.4,5.78-1.16,8.48v6.49
			c0,19.81-16.12,35.93-35.93,35.93h15c19.81,0,35.93-16.12,35.93-35.93v-63.3H160.096z"/>
		<path class="st17" d="M180.696,23.465v3.97c0,2.93-2.38,5.31-5.3,5.31h-15c2.92,0,5.3-2.38,5.3-5.31v-3.97
			c0-2.93-2.38-5.31-5.3-5.31h15C178.316,18.155,180.696,20.535,180.696,23.465z"/>
	</g>
</g>
</svg>
